<svg xmlns="http://www.w3.org/2000/svg" viewBox="0 0 300 300"><defs/><circle cx="150" cy="150" r="150" fill="#E6E6E6"/><path fill="#FFF" d="M257.98 57.324c-13.272-13.273-31.6-20.586-51.598-20.586-24.739 0-49.973 11.043-69.238 30.295L112.481 91.7c-4.078 4.075-6.666 9.072-7.823 14.324a28.933 28.933 0 00-14.359 7.849l-24.66 24.655c-16.716 16.711-27.267 37.924-29.709 59.74-2.626 23.478 4.662 45.742 19.995 61.072 13.282 13.273 31.606 20.586 51.599 20.586 24.747 0 49.984-11.043 69.242-30.304l24.658-24.655c3.926-3.921 6.619-8.946 7.824-14.322a28.99 28.99 0 0014.357-7.852l24.663-24.655c16.516-16.514 27.054-37.431 29.672-58.89 2.945-24.122-4.142-46.113-19.96-61.924z"/><path fill="#999" d="M263.472 51.831c-14.033-14.035-33.413-21.767-54.559-21.767-26.158 0-52.841 11.677-73.211 32.034l-26.078 26.083c-4.312 4.309-7.048 9.592-8.272 15.146a30.593 30.593 0 00-15.183 8.3l-26.075 26.07c-17.676 17.669-28.831 40.1-31.414 63.168-2.776 24.825 4.929 48.367 21.143 64.576 14.044 14.035 33.42 21.767 54.559 21.767 26.167 0 52.852-11.677 73.215-32.042l26.073-26.07c4.151-4.146 6.999-9.459 8.272-15.144a30.664 30.664 0 0015.181-8.302l26.078-26.07c17.464-17.462 28.606-39.578 31.375-62.269 3.115-25.509-4.379-48.762-21.104-65.48zm-77.774 159.298l-26.075 26.072c-15.635 15.63-35.768 24.596-55.237 24.596h-.004c-14.361 0-27.353-5.091-36.588-14.325-22.489-22.481-17.879-63.67 10.27-91.809l26.077-26.07c.416-.413.892-.694 1.392-.923a5.466 5.466 0 011.083-.402l.006-.006c1.811-.467 3.801-.085 5.221 1.332l73.856 73.838a5.429 5.429 0 011.595 3.849c0 .928-.261 1.823-.703 2.622-.028.052-.053.105-.083.157-.231.381-.49.75-.81 1.069zm73.646-96.892c-2.083 17.084-10.651 33.911-24.115 47.372l-26.079 26.072c-.416.415-.891.697-1.391.923-.779.406-1.602.672-2.461.672a5.425 5.425 0 01-3.851-1.596l-73.851-73.836c-1.424-1.419-1.806-3.419-1.33-5.226.1-.378.225-.725.404-1.081.227-.496.51-.976.926-1.391l26.075-26.078c15.633-15.628 35.766-24.594 55.24-24.594 14.358 0 27.353 5.089 36.59 14.325 11.073 11.071 15.992 26.856 13.843 44.438z"/></svg>