<svg xmlns="http://www.w3.org/2000/svg" viewBox="0 0 300 300"><defs/><path fill="#F2F2F2" d="M294.477 295.477H5.52a1 1 0 01-1-1V5.521a1 1 0 011-1h288.956a1 1 0 011 1v288.956a.999.999 0 01-.999 1z"/><path fill="#999" d="M277.398 300.004H22.602C10.136 300.004 0 289.869 0 277.402V22.598C0 10.131 10.136-.004 22.602-.004h254.796C289.864-.004 300 10.131 300 22.598v254.804c0 12.467-10.136 22.602-22.602 22.602zM22.602 9.036c-7.478 0-13.561 6.092-13.561 13.561v254.804c0 7.469 6.083 13.561 13.561 13.561h254.796c7.478 0 13.561-6.092 13.561-13.561V22.598c0-7.469-6.083-13.561-13.561-13.561H22.602z"/><path fill="#999" d="M228.524 131.253h-54.355V76.9c0-12.521-10.15-22.672-22.672-22.672-12.521 0-22.672 10.152-22.672 22.672v54.353H74.471c-12.523 0-22.672 10.147-22.672 22.672 0 12.521 10.149 22.672 22.672 22.672h54.353v54.353c0 12.525 10.152 22.672 22.672 22.672 12.523 0 22.672-10.147 22.672-22.672v-54.353h54.355c12.52 0 22.672-10.152 22.672-22.672.001-12.525-10.151-22.672-22.671-22.672z"/></svg>