<svg xmlns="http://www.w3.org/2000/svg" viewBox="0 0 300 300"><defs/><path fill="#F2F2F2" d="M30 0h240c16.569 0 30 13.431 30 30v240c0 16.569-13.431 30-30 30H30c-16.569 0-30-13.431-30-30V30C0 13.431 13.431 0 30 0z"/><path fill="#E6E6E6" d="M148.618 265.161c-3.081-.231-6.278-2.003-9.59-5.315l-71.335-71.345c-2.137-2.137-3.197-4.737-3.197-7.799 0-3.081.886-5.912 2.657-8.531 1.781-2.6 4.025-4.718 6.749-6.393 2.715-1.637 5.498-2.484 8.338-2.484 3.312 0 5.912.963 7.808 2.85l42.595 42.941V53.265c0-3.543 1.531-6.432 4.612-8.685 3.071-2.253 6.855-3.37 11.361-3.37 4.727 0 8.511 1.117 11.352 3.37 2.84 2.253 4.265 5.141 4.265 8.685v155.822l42.585-42.941c2.128-1.887 4.737-2.85 7.808-2.85 3.071 0 5.979.847 8.694 2.484 2.725 1.675 4.91 3.793 6.566 6.393 1.656 2.619 2.484 5.45 2.484 8.531 0 2.831-1.059 5.43-3.187 7.799l-71.345 71.345c-3.549 3.541-6.62 5.313-9.22 5.313z"/></svg>