<svg xmlns="http://www.w3.org/2000/svg" viewBox="0 0 300 300"><defs/><path fill="#E16644" d="M277.822 222.444c.265-.396.45-.826.676-1.244.254-.469.536-.917.74-1.408.219-.529.346-1.076.504-1.618.122-.422.286-.826.372-1.261.201-.999.306-2.01.306-3.025 0-1.016-.105-2.027-.306-3.025-.086-.435-.249-.835-.372-1.257-.157-.542-.284-1.093-.504-1.623-.204-.49-.486-.938-.738-1.403-.226-.418-.411-.852-.678-1.248a15.482 15.482 0 00-1.883-2.307c-.013-.013-.024-.03-.037-.043l-70.684-70.688c-6.02-6.021-15.787-6.025-21.812 0-6.025 6.02-6.025 15.789-.002 21.81l44.358 44.36H50.428V15.423C50.428 6.907 43.523 0 35.004 0 26.485 0 19.58 6.907 19.58 15.423v198.465c0 8.516 6.905 15.423 15.423 15.423h192.759l-44.358 44.36c-6.023 6.02-6.023 15.789.002 21.81A15.372 15.372 0 00194.311 300c3.946 0 7.895-1.506 10.907-4.519l70.684-70.688c.013-.013.023-.03.037-.043.7-.705 1.328-1.476 1.883-2.306z"/></svg>