<svg xmlns="http://www.w3.org/2000/svg" viewBox="0 0 300 300"><defs/><path fill="gray" d="M95.667 213.103c.211-2.809 1.826-5.724 4.846-8.744l65.054-65.045c1.949-1.949 4.319-2.915 7.111-2.915 2.809 0 5.39.808 7.778 2.423 2.37 1.624 4.302 3.67 5.829 6.154 1.492 2.476 2.265 5.013 2.265 7.603 0 3.02-.878 5.39-2.599 7.12l-39.155 38.839h142.082c3.231 0 5.865 1.396 7.919 4.205 2.054 2.801 3.073 6.251 3.073 10.359 0 4.311-1.018 7.761-3.073 10.351s-4.688 3.889-7.919 3.889H146.797l39.155 38.83c1.721 1.94 2.599 4.319 2.599 7.12s-.773 5.452-2.265 7.928c-1.528 2.484-3.459 4.477-5.829 5.987-2.388 1.51-4.969 2.265-7.778 2.265-2.581 0-4.951-.966-7.111-2.906l-65.054-65.054c-3.232-3.238-4.847-6.039-4.847-8.409z"/><path fill="gray" d="M225.568 0H73.687a9.099 9.099 0 00-6.442 2.67L2.666 67.249A9.107 9.107 0 000 73.691v217.197A9.111 9.111 0 009.112 300h110.341c5.03 0 9.112-4.079 9.112-9.112 0-5.03-4.083-9.112-9.112-9.112H18.225V81.287h55.463c4.196 0 7.596-3.4 7.596-7.597V18.225h135.169v132.038a9.117 9.117 0 009.116 9.116c5.03 0 9.112-4.083 9.112-9.116V9.112c0-5.033-4.083-9.112-9.113-9.112zM29.593 66.098l36.501-36.505v36.505H29.593z"/><path fill="gray" d="M132.337 136.191H64.198c-5.313 0-9.623-3.4-9.623-7.596 0-4.193 4.31-7.59 9.623-7.59h68.139c5.313 0 9.623 3.397 9.623 7.59.001 4.196-4.31 7.596-9.623 7.596zM95.779 185.422H62.17a7.593 7.593 0 110-15.186h33.609a7.593 7.593 0 110 15.186z"/></svg>