<svg xmlns="http://www.w3.org/2000/svg" viewBox="0 0 300 300"><defs/><circle cx="150" cy="150" r="150" fill="#F2F2F2"/><path fill="#999" d="M50.87 128.579l88.648-71.259a5.468 5.468 0 015.776-.669 5.456 5.456 0 013.095 4.918v34.814a95.528 95.528 0 016.294-.204c13.282 0 32.648 2.59 49.476 14.933 27.478 20.149 27.793 49.189 27.793 50.416v62.497a5.449 5.449 0 01-5.456 5.449 5.457 5.457 0 01-5.274-4.081c-.094-.36-9.732-36.177-39.221-50.433-5.934-2.869-12.592-4.322-19.787-4.322-5.781 0-10.718.954-13.826 1.749v31.696a5.454 5.454 0 01-3.095 4.918 5.472 5.472 0 01-5.776-.669L50.87 137.078a5.454 5.454 0 010-8.499z"/></svg>