<svg xmlns="http://www.w3.org/2000/svg" viewBox="0 0 300 300"><defs/><path fill="#6E6E6E" d="M210.033 150l77.53-77.528c16.583-16.583 16.583-43.453 0-60.036-16.566-16.583-43.467-16.583-60.033 0L150 89.968 72.481 12.436c-16.569-16.583-43.467-16.583-60.034 0-16.583 16.569-16.583 43.453 0 60.036L89.967 150l-77.53 77.528c-16.583 16.583-16.583 43.453 0 60.036C20.722 295.854 31.592 300 42.453 300c10.863 0 21.735-4.147 30.016-12.436L150 210.033l77.53 77.532c8.281 8.29 19.153 12.436 30.016 12.436 10.861 0 21.732-4.147 30.016-12.436 16.583-16.569 16.583-43.453 0-60.036L210.033 150z"/></svg>